<svg width="35" height="34" viewBox="0 0 35 34" fill="none" xmlns="http://www.w3.org/2000/svg">
<path fill-rule="evenodd" clip-rule="evenodd" d="M34.9529 17C34.9529 26.3888 27.1284 34 17.4764 34C7.82447 34 0 26.3888 0 17C0 7.61116 7.82447 0 17.4764 0C27.1284 0 34.9529 7.61116 34.9529 17ZM18.1027 12.5501C16.4029 13.2379 13.0056 14.6614 7.91084 16.8205C7.08354 17.1406 6.65016 17.4536 6.61071 17.7598C6.54403 18.2771 7.21006 18.4808 8.11703 18.7583C8.2404 18.796 8.36823 18.8351 8.49928 18.8765C9.3916 19.1587 10.5919 19.4888 11.2159 19.5019C11.7819 19.5138 12.4137 19.2868 13.1112 18.8209C17.8713 15.6953 20.3286 14.1154 20.4828 14.0813C20.5917 14.0573 20.7425 14.0271 20.8447 14.1154C20.9469 14.2038 20.9368 14.3711 20.926 14.416C20.86 14.6896 18.2456 17.054 16.8926 18.2775C16.4708 18.659 16.1716 18.9295 16.1105 18.9913C15.9735 19.1297 15.8338 19.2607 15.6996 19.3865C14.8707 20.1639 14.249 20.7468 15.7341 21.6988C16.4477 22.1563 17.0188 22.5346 17.5885 22.912C18.2107 23.3241 18.8313 23.7352 19.6342 24.2472C19.8388 24.3776 20.0342 24.5131 20.2244 24.6451C20.9485 25.1472 21.5991 25.5983 22.4027 25.5264C22.8697 25.4846 23.3521 25.0574 23.5971 23.7835C24.176 20.7728 25.3141 14.2495 25.5771 11.5614C25.6001 11.3259 25.5711 11.0245 25.5479 10.8921C25.5246 10.7598 25.4759 10.5713 25.2991 10.4318C25.0897 10.2665 24.7665 10.2316 24.6219 10.2341C23.9646 10.2454 22.9561 10.5865 18.1027 12.5501Z" fill="#EB1717" fill-opacity="0.8"/>
</svg>
