<svg width="36" height="31" viewBox="0 0 36 31" fill="none" xmlns="http://www.w3.org/2000/svg">
<path fill-rule="evenodd" clip-rule="evenodd" d="M3.03267 2.46225C0.575684 4.5766 0.575684 7.97956 0.575684 14.7856V15.9887C0.575684 22.7947 0.575684 26.1977 3.03267 28.3121C5.48966 30.4264 9.4441 30.4264 17.3531 30.4264H18.7512C26.6601 30.4264 30.6145 30.4264 33.0716 28.3121C35.5285 26.1977 35.5285 22.7947 35.5285 15.9887V14.7856C35.5285 7.97956 35.5285 4.5766 33.0716 2.46225C30.6145 0.3479 26.6601 0.3479 18.7512 0.3479H17.3531C9.4441 0.3479 5.48966 0.3479 3.03267 2.46225ZM6.47407 9.49683C6.66339 17.3172 11.2073 22.017 19.1736 22.017H19.6251V17.5428C22.5524 17.7935 24.766 19.6358 25.6544 22.017H29.7905C28.6546 18.4577 25.6689 16.4901 23.8047 15.7381C25.6689 14.8107 28.2903 12.5548 28.9166 9.49683H25.1591C24.3435 11.9783 21.9262 14.2342 19.6251 14.4473V9.49683H15.8676V18.1695C13.5374 17.6682 10.5956 15.2368 10.4645 9.49683H6.47407Z" fill="#EB1717" fill-opacity="0.8"/>
</svg>
