<svg width="35" height="34" viewBox="0 0 35 34" fill="none" xmlns="http://www.w3.org/2000/svg">
<path fill-rule="evenodd" clip-rule="evenodd" d="M34.9896 17C34.9896 26.3888 27.3157 34 17.8495 34C14.2482 34 10.9063 32.8984 8.14761 31.0164L0.768861 33.6321C0.402089 33.7621 0.0478899 33.4108 0.178978 33.047L2.93848 25.3893C1.51972 22.914 0.709445 20.0509 0.709445 17C0.709445 7.61116 8.38332 0 17.8495 0C27.3157 0 34.9896 7.61116 34.9896 17ZM14.5124 20.5233C17.8607 23.8443 21.8323 25.2895 23.3831 23.7514L24.4041 22.7387C25.109 22.0395 25.0904 20.8875 24.3625 20.1656L22.7809 18.5969C22.0531 17.875 20.8915 17.8565 20.1866 18.5557L19.9673 18.7732C19.5867 19.1507 18.9728 19.1876 18.5442 18.8368C18.1309 18.4985 17.7191 18.1338 17.3204 17.7383C16.9217 17.3429 16.5539 16.9345 16.2128 16.5245C15.8592 16.0995 15.8964 15.4905 16.277 15.113L16.4963 14.8955C17.2012 14.1964 17.1826 13.0443 16.4547 12.3224L14.8731 10.7538C14.1453 10.0318 12.9837 10.0133 12.2788 10.7125L11.2578 11.7252C9.70696 13.2633 11.1641 17.2024 14.5124 20.5233Z" fill="#EB4244"/>
</svg>
