<svg width="45" height="28" viewBox="0 0 45 28" fill="none" xmlns="http://www.w3.org/2000/svg">
<path d="M44.5589 6.75433C44.5589 6.75433 44.1266 4.10064 42.7949 2.93542C41.1087 1.40185 39.2236 1.39433 38.3589 1.30412C32.1675 0.913208 22.8718 0.913208 22.8718 0.913208H22.8545C22.8545 0.913208 13.5588 0.913208 7.36736 1.30412C6.50264 1.39433 4.61755 1.40185 2.93135 2.93542C1.59968 4.10064 1.17597 6.75433 1.17597 6.75433C1.17597 6.75433 0.726318 9.8741 0.726318 12.9864V15.9032C0.726318 19.0154 1.16733 22.1352 1.16733 22.1352C1.16733 22.1352 1.59968 24.7889 2.92271 25.9541C4.60891 27.4877 6.82259 27.4351 7.80837 27.6004C11.3537 27.8936 22.8631 27.9838 22.8631 27.9838C22.8631 27.9838 32.1675 27.9688 38.3589 27.5854C39.2236 27.4952 41.1087 27.4877 42.7949 25.9541C44.1266 24.7889 44.5589 22.1352 44.5589 22.1352C44.5589 22.1352 44.9999 19.0229 44.9999 15.9032V12.9864C44.9999 9.8741 44.5589 6.75433 44.5589 6.75433ZM18.2888 19.4439V8.62619L30.2478 14.0539L18.2888 19.4439Z" fill="#EB1717" fill-opacity="0.8"/>
</svg>
